# Blender 5.0.1
# www.blender.org
o Plane
v 0.175921 -0.651813 -0.008439
v 0.173264 0.000728 0.002475
v -0.166724 -0.625132 -0.001544
v -0.175520 0.000648 0.001914
v -0.098873 -0.651805 -0.010117
v -0.032487 -0.698646 -0.000238
v 0.035699 -0.723607 0.002490
v 0.105665 -0.698656 -0.002554
v 0.103534 0.000795 0.002498
v 0.034334 0.000863 0.002930
v -0.035328 0.000761 0.001921
v -0.105435 0.000654 -0.001089
v 0.175912 -0.561931 -0.008438
v 0.173385 -0.468656 -0.008437
v 0.168351 -0.390340 -0.008437
v 0.163421 -0.312102 -0.008437
v 0.161198 -0.233868 -0.008437
v 0.163405 -0.155705 -0.008437
v 0.168277 -0.077523 -0.003181
v -0.175476 -0.077490 -0.002274
v -0.175432 -0.155627 -0.002276
v -0.175421 -0.233865 -0.002276
v -0.173675 -0.312101 -0.002276
v -0.170176 -0.390340 -0.002276
v -0.166739 -0.468584 -0.002277
v -0.165182 -0.546831 -0.002034
v 0.099086 -0.077470 0.000245
v 0.094718 -0.155685 -0.003236
v 0.092826 -0.233868 -0.003238
v 0.094741 -0.312100 -0.003238
v 0.099186 -0.390337 -0.003237
v 0.104412 -0.478588 -0.003185
v 0.105980 -0.597264 -0.002488
v 0.031224 -0.077401 0.006109
v 0.027955 -0.155645 0.005643
v 0.026575 -0.233868 0.005643
v 0.027987 -0.312109 0.005643
v 0.032187 -0.390349 0.005643
v 0.037188 -0.486010 0.005689
v 0.037439 -0.615418 0.005828
v -0.036582 -0.077432 -0.001522
v -0.038498 -0.155623 -0.001527
v -0.039338 -0.233869 -0.001527
v -0.037906 -0.312120 -0.001527
v -0.033860 -0.390365 -0.001527
v -0.030169 -0.478602 -0.001438
v -0.029827 -0.597259 -0.000385
v -0.105440 -0.077485 -0.010116
v -0.105740 -0.155625 -0.010114
v -0.106006 -0.233868 -0.010114
v -0.104353 -0.312111 -0.010114
v -0.100925 -0.390353 -0.010114
v -0.097835 -0.468665 -0.010114
v -0.096562 -0.561931 -0.010114
v 0.175499 -0.651811 -0.013421
v 0.173140 0.000988 -0.002517
v -0.167328 -0.625133 -0.006508
v -0.175904 0.001068 -0.003054
v -0.098635 -0.651819 -0.015111
v -0.032011 -0.698609 -0.005215
v 0.035624 -0.723530 -0.002509
v 0.105187 -0.698599 -0.007530
v 0.103359 0.000921 -0.002498
v 0.034369 0.000853 -0.002070
v -0.034965 0.000955 -0.003062
v -0.105420 0.001062 -0.006073
v 0.175508 -0.561945 -0.013422
v 0.173001 -0.468681 -0.013423
v 0.167976 -0.390364 -0.013423
v 0.163044 -0.312118 -0.013423
v 0.160820 -0.233868 -0.013423
v 0.163061 -0.155547 -0.013423
v 0.168063 -0.077245 -0.008169
v -0.175947 -0.077279 -0.007247
v -0.175990 -0.155626 -0.007245
v -0.175981 -0.233871 -0.007245
v -0.174235 -0.312119 -0.007245
v -0.170737 -0.390364 -0.007245
v -0.167308 -0.468604 -0.007244
v -0.165769 -0.546841 -0.007000
v 0.098784 -0.077298 -0.004743
v 0.094243 -0.155567 -0.008212
v 0.092303 -0.233868 -0.008210
v 0.094220 -0.312120 -0.008210
v 0.098669 -0.390367 -0.008211
v 0.103900 -0.478615 -0.008158
v 0.105486 -0.597256 -0.007464
v 0.031242 -0.077367 0.001109
v 0.027929 -0.155607 0.000644
v 0.026521 -0.233868 0.000644
v 0.027933 -0.312111 0.000644
v 0.032127 -0.390355 0.000644
v 0.037114 -0.486027 0.000690
v 0.037363 -0.615382 0.000829
v -0.036106 -0.077336 -0.006498
v -0.037911 -0.155629 -0.006493
v -0.038749 -0.233867 -0.006492
v -0.037316 -0.312100 -0.006492
v -0.033272 -0.390339 -0.006493
v -0.029585 -0.478601 -0.006404
v -0.029263 -0.597262 -0.005353
v -0.105414 -0.077283 -0.015112
v -0.105703 -0.155627 -0.015114
v -0.105972 -0.233868 -0.015114
v -0.104319 -0.312109 -0.015114
v -0.100887 -0.390351 -0.015114
v -0.097788 -0.468672 -0.015114
v -0.096507 -0.561945 -0.015114
vn -0.0051 -0.0403 0.9992
vn -0.0030 -0.0815 0.9967
vn 0.0769 -0.0840 0.9935
vn 0.0943 -0.0422 0.9947
vn 0.0428 -0.0555 0.9975
vn 0.0247 -0.0519 0.9983
vn 0.0350 -0.0251 0.9991
vn 0.0603 -0.0343 0.9976
vn -0.0071 0.0019 1.0000
vn -0.0036 -0.0068 1.0000
vn -0.0727 -0.0388 0.9966
vn -0.0952 -0.0193 0.9953
vn -0.0952 -0.0075 0.9954
vn -0.1129 0.0005 0.9936
vn -0.0111 0.0028 0.9999
vn -0.0477 0.0029 0.9989
vn -0.1168 -0.0001 0.9932
vn -0.0093 0.0016 1.0000
vn -0.1174 -0.0052 0.9931
vn -0.0077 -0.0003 1.0000
vn -0.1180 -0.0041 0.9930
vn -0.0069 -0.0002 1.0000
vn -0.1179 -0.0005 0.9930
vn -0.0068 0.0002 1.0000
vn -0.1175 0.0012 0.9931
vn -0.0073 0.0006 1.0000
vn 0.0148 -0.0155 0.9998
vn 0.0153 -0.0072 0.9999
vn 0.0148 0.0033 0.9999
vn 0.0120 0.0013 0.9999
vn 0.0107 0.0005 0.9999
vn 0.0109 -0.0001 0.9999
vn 0.0052 -0.0076 1.0000
vn 0.0956 -0.0115 0.9954
vn 0.0986 -0.0017 0.9951
vn 0.1022 0.0055 0.9948
vn 0.1032 0.0061 0.9946
vn 0.1041 0.0042 0.9946
vn 0.1045 -0.0000 0.9945
vn 0.0950 -0.0234 0.9952
vn 0.0844 -0.0005 0.9964
vn 0.0808 0.0029 0.9967
vn 0.0769 0.0049 0.9970
vn 0.0752 0.0047 0.9972
vn 0.0754 0.0033 0.9971
vn 0.0757 -0.0000 0.9971
vn 0.0688 -0.0314 0.9971
vn 0.1179 0.0019 0.9930
vn 0.1212 0.0001 0.9926
vn 0.1140 0.0040 0.9935
vn 0.1126 0.0048 0.9936
vn 0.1123 0.0037 0.9937
vn 0.1121 0.0011 0.9937
vn 0.1117 -0.0002 0.9937
vn 0.0051 0.0403 -0.9992
vn -0.0939 0.0422 -0.9947
vn -0.0767 0.0839 -0.9935
vn 0.0030 0.0815 -0.9967
vn -0.0428 0.0555 -0.9975
vn -0.0604 0.0343 -0.9976
vn -0.0350 0.0252 -0.9991
vn -0.0248 0.0519 -0.9983
vn 0.0036 0.0068 -1.0000
vn 0.0071 -0.0019 -1.0000
vn 0.0952 0.0193 -0.9953
vn 0.0727 0.0389 -0.9966
vn 0.0953 0.0075 -0.9954
vn 0.0476 -0.0029 -0.9989
vn 0.0111 -0.0029 -0.9999
vn 0.1128 -0.0005 -0.9936
vn 0.0093 -0.0016 -1.0000
vn 0.1168 0.0001 -0.9932
vn 0.0077 0.0003 -1.0000
vn 0.1175 0.0052 -0.9931
vn 0.0069 0.0002 -1.0000
vn 0.1180 0.0041 -0.9930
vn 0.0068 -0.0002 -1.0000
vn 0.1178 0.0005 -0.9930
vn 0.0073 -0.0005 -1.0000
vn 0.1174 -0.0012 -0.9931
vn -0.0149 0.0155 -0.9998
vn -0.0153 0.0072 -0.9999
vn -0.0148 -0.0033 -0.9999
vn -0.0120 -0.0013 -0.9999
vn -0.0107 -0.0005 -0.9999
vn -0.0109 0.0001 -0.9999
vn -0.0052 0.0076 -1.0000
vn -0.0957 0.0115 -0.9953
vn -0.0988 0.0016 -0.9951
vn -0.1024 -0.0055 -0.9947
vn -0.1035 -0.0061 -0.9946
vn -0.1043 -0.0042 -0.9945
vn -0.1048 -0.0000 -0.9945
vn -0.0953 0.0234 -0.9952
vn -0.0844 0.0005 -0.9964
vn -0.0808 -0.0029 -0.9967
vn -0.0769 -0.0049 -0.9970
vn -0.0752 -0.0047 -0.9972
vn -0.0755 -0.0033 -0.9971
vn -0.0757 -0.0000 -0.9971
vn -0.0689 0.0315 -0.9971
vn -0.1204 -0.0003 -0.9927
vn -0.1172 -0.0020 -0.9931
vn -0.1135 -0.0040 -0.9935
vn -0.1121 -0.0048 -0.9937
vn -0.1118 -0.0037 -0.9937
vn -0.1116 -0.0011 -0.9938
vn -0.1113 0.0002 -0.9938
vn 0.5504 -0.8331 -0.0548
vn 0.4465 -0.8937 -0.0434
vn 0.4449 -0.8945 -0.0433
vn 0.9974 -0.0615 -0.0371
vn 0.9970 -0.0602 -0.0476
vn 0.9970 -0.0602 -0.0478
vn 0.0035 0.9966 0.0827
vn 0.0005 0.9974 0.0715
vn 0.0005 0.9974 0.0714
vn -0.9927 0.0204 0.1191
vn -0.9931 0.0006 0.1174
vn -0.9931 0.0005 0.1174
vn -0.4675 -0.8839 -0.0134
vn -0.3623 -0.9319 0.0148
vn -0.4730 -0.8809 -0.0149
vn -0.4612 -0.8866 -0.0340
vn -0.4610 -0.8867 -0.0340
vn -0.3438 -0.9387 -0.0247
vn 0.3345 -0.9419 -0.0313
vn -0.0000 0.9997 0.0254
vn -0.0000 0.9993 0.0386
vn -0.0000 0.9997 0.0248
vn -0.0001 0.9999 0.0151
vn -0.0001 0.9999 0.0150
vn -0.0015 0.9992 0.0399
vn -0.0014 0.9992 0.0388
vn 0.9966 0.0135 -0.0808
vn 0.9966 -0.0000 -0.0826
vn 0.9966 0.0134 -0.0808
vn 0.9960 0.0454 -0.0776
vn 0.9951 0.0633 -0.0758
vn 0.9961 0.0455 -0.0755
vn 0.9972 -0.0000 -0.0742
vn 0.9969 -0.0437 -0.0655
vn 0.9969 -0.0436 -0.0656
vn -0.9956 -0.0023 0.0942
vn -0.9963 -0.0046 0.0853
vn -0.9956 -0.0023 0.0940
vn -0.9942 -0.0001 0.1073
vn -0.9937 -0.0112 0.1119
vn -0.9937 -0.0111 0.1119
vn -0.9931 -0.0333 0.1121
vn -0.9927 -0.0440 0.1127
vn -0.9929 -0.0314 0.1144
vt 0.098026 0.890727
vt 0.098509 0.998948
vt 0.001555 0.999753
vt 0.000906 0.891765
vt 0.486928 0.891752
vt 0.486295 0.999930
vt 0.389377 0.999485
vt 0.389831 0.891493
vt 0.292470 0.999121
vt 0.292586 0.891235
vt 0.195512 0.998987
vt 0.195268 0.891079
vt 0.195877 0.034343
vt 0.195645 0.174199
vt 0.097736 0.222863
vt 0.097829 0.098835
vt 0.195413 0.337883
vt 0.097690 0.351562
vt 0.195375 0.459643
vt 0.097673 0.459631
vt 0.195365 0.567586
vt 0.097679 0.567591
vt 0.195369 0.675496
vt 0.097731 0.675524
vt 0.195365 0.783345
vt 0.097872 0.783359
vt 0.293041 0.000070
vt 0.292931 0.149299
vt 0.292876 0.327684
vt 0.292842 0.459663
vt 0.292815 0.567600
vt 0.292783 0.675520
vt 0.292745 0.783417
vt 0.390365 0.034389
vt 0.390508 0.174256
vt 0.390600 0.337943
vt 0.390576 0.459693
vt 0.390538 0.567634
vt 0.390489 0.675561
vt 0.390411 0.783454
vt 0.487770 0.098913
vt 0.487843 0.222950
vt 0.487843 0.351660
vt 0.487811 0.459726
vt 0.487766 0.567679
vt 0.487704 0.675624
vt 0.487614 0.783558
vt 0.000091 0.243655
vt 0.000078 0.135590
vt 0.000091 0.351639
vt 0.000070 0.459625
vt 0.000071 0.567617
vt 0.000118 0.675625
vt 0.000288 0.783667
s 1
f 48/1/1 12/2/2 4/3/3 20/4/4
f 19/5/5 2/6/6 9/7/7 27/8/8
f 27/8/8 9/7/7 10/9/9 34/10/10
f 34/10/10 10/9/9 11/11/11 41/12/12
f 41/12/12 11/11/11 12/2/2 48/1/1
f 6/13/13 47/14/14 54/15/15 5/16/16
f 47/14/14 46/17/17 53/18/18 54/15/15
f 46/17/17 45/19/19 52/20/20 53/18/18
f 45/19/19 44/21/21 51/22/22 52/20/20
f 44/21/21 43/23/23 50/24/24 51/22/22
f 43/23/23 42/25/25 49/26/26 50/24/24
f 42/25/25 41/12/12 48/1/1 49/26/26
f 7/27/27 40/28/28 47/14/14 6/13/13
f 40/28/28 39/29/29 46/17/17 47/14/14
f 39/29/29 38/30/30 45/19/19 46/17/17
f 38/30/30 37/31/31 44/21/21 45/19/19
f 37/31/31 36/32/32 43/23/23 44/21/21
f 36/32/32 35/33/33 42/25/25 43/23/23
f 35/33/33 34/10/10 41/12/12 42/25/25
f 8/34/34 33/35/35 40/28/28 7/27/27
f 33/35/35 32/36/36 39/29/29 40/28/28
f 32/36/36 31/37/37 38/30/30 39/29/29
f 31/37/37 30/38/38 37/31/31 38/30/30
f 30/38/38 29/39/39 36/32/32 37/31/31
f 29/39/39 28/40/40 35/33/33 36/32/32
f 28/40/40 27/8/8 34/10/10 35/33/33
f 1/41/41 13/42/42 33/35/35 8/34/34
f 13/42/42 14/43/43 32/36/36 33/35/35
f 14/43/43 15/44/44 31/37/37 32/36/36
f 15/44/44 16/45/45 30/38/38 31/37/37
f 16/45/45 17/46/46 29/39/39 30/38/38
f 17/46/46 18/47/47 28/40/40 29/39/39
f 18/47/47 19/5/5 27/8/8 28/40/40
f 5/16/16 54/15/15 26/48/48 3/49/49
f 54/15/15 53/18/18 25/50/50 26/48/48
f 53/18/18 52/20/20 24/51/51 25/50/50
f 52/20/20 51/22/22 23/52/52 24/51/51
f 51/22/22 50/24/24 22/53/53 23/52/52
f 50/24/24 49/26/26 21/54/54 22/53/53
f 49/26/26 48/1/1 20/4/4 21/54/54
f 102/1/55 74/4/56 58/3/57 66/2/58
f 73/5/59 81/8/60 63/7/61 56/6/62
f 81/8/60 88/10/63 64/9/64 63/7/61
f 88/10/63 95/12/65 65/11/66 64/9/64
f 95/12/65 102/1/55 66/2/58 65/11/66
f 60/13/67 59/16/68 108/15/69 101/14/70
f 101/14/70 108/15/69 107/18/71 100/17/72
f 100/17/72 107/18/71 106/20/73 99/19/74
f 99/19/74 106/20/73 105/22/75 98/21/76
f 98/21/76 105/22/75 104/24/77 97/23/78
f 97/23/78 104/24/77 103/26/79 96/25/80
f 96/25/80 103/26/79 102/1/55 95/12/65
f 61/27/81 60/13/67 101/14/70 94/28/82
f 94/28/82 101/14/70 100/17/72 93/29/83
f 93/29/83 100/17/72 99/19/74 92/30/84
f 92/30/84 99/19/74 98/21/76 91/31/85
f 91/31/85 98/21/76 97/23/78 90/32/86
f 90/32/86 97/23/78 96/25/80 89/33/87
f 89/33/87 96/25/80 95/12/65 88/10/63
f 62/34/88 61/27/81 94/28/82 87/35/89
f 87/35/89 94/28/82 93/29/83 86/36/90
f 86/36/90 93/29/83 92/30/84 85/37/91
f 85/37/91 92/30/84 91/31/85 84/38/92
f 84/38/92 91/31/85 90/32/86 83/39/93
f 83/39/93 90/32/86 89/33/87 82/40/94
f 82/40/94 89/33/87 88/10/63 81/8/60
f 55/41/95 62/34/88 87/35/89 67/42/96
f 67/42/96 87/35/89 86/36/90 68/43/97
f 68/43/97 86/36/90 85/37/91 69/44/98
f 69/44/98 85/37/91 84/38/92 70/45/99
f 70/45/99 84/38/92 83/39/93 71/46/100
f 71/46/100 83/39/93 82/40/94 72/47/101
f 72/47/101 82/40/94 81/8/60 73/5/59
f 59/16/68 57/49/102 80/48/103 108/15/69
f 108/15/69 80/48/103 79/50/104 107/18/71
f 107/18/71 79/50/104 78/51/105 106/20/73
f 106/20/73 78/51/105 77/52/106 105/22/75
f 105/22/75 77/52/106 76/53/107 104/24/77
f 104/24/77 76/53/107 75/54/108 103/26/79
f 103/26/79 75/54/108 74/4/56 102/1/55
f 1/41/109 8/34/110 62/34/111 55/41/109
f 2/6/112 19/5/113 73/5/114 56/6/112
f 4/3/115 12/2/116 66/2/117 58/3/115
f 3/49/118 26/48/119 80/48/120 57/49/118
f 5/16/121 3/49/122 57/49/122 59/16/123
f 6/13/124 5/16/121 59/16/123 60/13/125
f 7/27/126 6/13/124 60/13/125 61/27/126
f 8/34/110 7/27/127 61/27/127 62/34/111
f 9/7/128 2/6/129 56/6/129 63/7/130
f 10/9/131 9/7/128 63/7/130 64/9/132
f 11/11/133 10/9/131 64/9/132 65/11/134
f 12/2/116 11/11/133 65/11/134 66/2/117
f 13/42/135 1/41/136 55/41/136 67/42/137
f 14/43/138 13/42/135 67/42/137 68/43/138
f 15/44/139 14/43/138 68/43/138 69/44/139
f 16/45/140 15/44/139 69/44/139 70/45/140
f 17/46/141 16/45/140 70/45/140 71/46/141
f 18/47/142 17/46/141 71/46/141 72/47/143
f 19/5/113 18/47/142 72/47/143 73/5/114
f 20/4/144 4/3/145 58/3/145 74/4/146
f 21/54/147 20/4/144 74/4/146 75/54/147
f 22/53/148 21/54/147 75/54/147 76/53/149
f 23/52/150 22/53/148 76/53/149 77/52/150
f 24/51/151 23/52/150 77/52/150 78/51/151
f 25/50/152 24/51/151 78/51/151 79/50/152
f 26/48/119 25/50/152 79/50/152 80/48/120
